<?xml version="1.0" encoding="utf-8"?>
<svg viewBox="0 0 128 128" xmlns="http://www.w3.org/2000/svg">
  <rect width="128" height="128" style="" rx="30.538" ry="30.538"/>
  <g id="XMLID_7_" transform="matrix(0.5910690426826477, 0, 0, 0.5910690426826477, -158.44615173339844, -142.87571716308594)" style="">
    <g transform="matrix(1, 0, 0, 1, 11.695455, 3.248737)">
      <path class="st6" d="M296.8,349.7c1.6,37.4,33.3,66.5,70.8,64.8c37.4-1.6,66.5-33.3,64.8-70.8c-1.6-37.4-33.3-66.5-70.8-64.8 C324.2,280.6,295.2,312.3,296.8,349.7z M446.4,343.2c2,45.1-33,83.4-78.2,85.3c-45.2,2-83.4-33-85.3-78.2 c-2-45.1,33-83.4,78.2-85.3C406.2,263.1,444.4,298.1,446.4,343.2z" style="fill: rgb(209, 211, 212);"/>
      <path d="M414.1,339.6c0.6,4.3,0.6,8.7,0,13l9.1,1.2c0.7-5.1,0.7-10.3,0-15.4L414.1,339.6z M413.3,335.3l9-2 c-1.1-5-2.9-9.9-5.3-14.5l-8.2,4.2C410.9,327,412.4,331.1,413.3,335.3z M406.7,319.3l7.7-4.9c-2.7-4.3-6-8.2-9.9-11.8l-6.2,6.8 C401.6,312.3,404.4,315.7,406.7,319.3z M383.7,300c4,1.6,7.8,3.8,11.3,6.5l5.6-7.3c-4.2-3.2-8.7-5.8-13.3-7.7L383.7,300z M367.5,296.3c4.1,0.2,8.2,1,12.1,2.2l2.8-8.8c-4.9-1.6-10.1-2.5-15.2-2.7l-0.2,5.3L367.5,296.3z M362.3,292.6l-0.2-5.5 c-5.1,0.2-10.3,1.1-15.2,2.7l2.8,8.8c4-1.2,8-2,12.1-2.2L362.3,292.6z M361.7,279c37.4-1.6,69.1,27.4,70.8,64.8 c1.6,37.4-27.4,69.1-64.8,70.8c-37.4,1.6-69.1-27.4-70.8-64.8C295.2,312.3,324.2,280.6,361.7,279z M356,346.4 c0,6.9,3.9,12.5,8.7,12.5c4.8,0,8.7-5.6,8.7-12.5l-0.8-5.1l-7.9-53.9l-7.9,53.9L356,346.4z M312.2,373.4l8.2-4.2 c-2-3.9-3.5-8-4.4-12.2l-9,2C308,363.9,309.8,368.8,312.2,373.4z M306,353.8l9.1-1.2c-0.6-4.3-0.6-8.7,0-13l-9.1-1.2 C305.3,343.5,305.3,348.7,306,353.8z M417,373.4c2.4-4.6,4.2-9.5,5.3-14.5l-9-2c-0.9,4.2-2.4,8.3-4.5,12.2L417,373.4z M388.9,389.4v-6.9h-6.9v6.9H388.9z M375,389.4v-6.9h-6.9v6.9H375z M361.1,389.4v-6.9h-6.9v6.9H361.1z M347.3,389.4v-6.9h-6.9v6.9 H347.3z M345.5,300l-3.5-8.5c-4.7,1.9-9.2,4.5-13.4,7.7l5.6,7.3C337.7,303.8,341.5,301.6,345.5,300z M330.9,309.3l-6.2-6.8 c-1.3,1.1-2.5,2.4-3.6,3.6c-2.4,2.6-4.5,5.3-6.3,8.2l7.8,4.9c1.5-2.4,3.3-4.7,5.3-6.9C328.8,311.3,329.8,310.3,330.9,309.3z M320.3,323.1l-8.2-4.2c-2.4,4.6-4.2,9.5-5.3,14.5l9,2C316.8,331.1,318.3,327,320.3,323.1z"/>
      <path class="st7" d="M423.2,353.8l-9.1-1.2c0.6-4.3,0.6-8.7,0-13l9.1-1.2C423.8,343.5,423.8,348.7,423.2,353.8z" style="fill: rgb(237, 28, 36);"/>
      <path class="st14" d="M417,318.8c2.4,4.6,4.2,9.5,5.3,14.5l-9,2c-0.9-4.2-2.4-8.3-4.4-12.2L417,318.8z" style="fill: rgb(239, 65, 54);"/>
      <path class="st8" d="M417,373.4l-8.2-4.2c2-3.9,3.5-8,4.5-12.2l9,2C421.2,363.9,419.4,368.8,417,373.4z" style="fill: rgb(190, 30, 45);"/>
      <path class="st9" d="M414.4,314.4l-7.7,4.9c-2.3-3.6-5.1-7-8.4-10l6.2-6.8C408.4,306.1,411.7,310.1,414.4,314.4z" style="fill: rgb(241, 90, 41);"/>
      <path class="st3" d="M400.6,299.2l-5.6,7.3c-3.5-2.7-7.3-4.9-11.3-6.5l3.5-8.5C391.9,293.5,396.4,296,400.6,299.2z" style="fill: rgb(247, 148, 29);"/>
      <rect x="381.9" y="382.5" class="st6" width="6.9" height="6.9" style="fill: rgb(209, 211, 212);"/>
      <rect x="368.1" y="382.5" class="st6" width="6.9" height="6.9" style="fill: rgb(209, 211, 212);"/>
      <path class="st6" d="M367.2,287.1c5.1,0.2,10.3,1.1,15.2,2.7l-2.8,8.8c-3.9-1.2-8-2-12.1-2.2l-0.6-3.9L367.2,287.1z" style="fill: rgb(209, 211, 212);"/>
      <path class="st1" d="M364.6,343.3c2.1,0,3.9,1.7,3.9,3.9c0,2.1-1.7,3.9-3.9,3.9c-2.1,0-3.9-1.7-3.9-3.9 C360.8,345,362.5,343.3,364.6,343.3z" style="fill: rgb(230, 231, 232);"/>
      <linearGradient id="SVGID_5_" gradientUnits="userSpaceOnUse" x1="364.6182" y1="323.1533" x2="364.6182" y2="305.8201">
        <stop offset="0" style="stop-color:#1B75BC"/>
        <stop offset="1" style="stop-color:#00AEEF"/>
        <stop offset="1" style="stop-color:#000000"/>
      </linearGradient>
      <path class="st17" d="M373.3,346.4c0,6.9-3.9,12.5-8.7,12.5c-4.8,0-8.7-5.6-8.7-12.5l0.7-5.1l7.9-53.9l7.9,53.9L373.3,346.4z M368.5,347.1c0-2.1-1.7-3.9-3.9-3.9c-2.1,0-3.9,1.7-3.9,3.9c0,2.1,1.7,3.9,3.9,3.9C366.8,351,368.5,349.3,368.5,347.1z" style="fill: url(#SVGID_5_);"/>
      <path class="st6" d="M346.8,289.7c4.9-1.5,10-2.4,15.2-2.7l0.2,5.5l-0.5,3.7c-4.1,0.2-8.2,1-12.1,2.2L346.8,289.7z" style="fill: rgb(209, 211, 212);"/>
      <rect x="354.2" y="382.5" class="st6" width="6.9" height="6.9" style="fill: rgb(209, 211, 212);"/>
      <rect x="340.4" y="382.5" class="st6" width="6.9" height="6.9" style="fill: rgb(209, 211, 212);"/>
      <path class="st6" d="M328.6,299.2c4.2-3.2,8.7-5.8,13.4-7.7l3.5,8.5c-4,1.6-7.8,3.8-11.3,6.5L328.6,299.2z" style="fill: rgb(209, 211, 212);"/>
      <path class="st6" d="M324.7,302.6l6.2,6.8c-1.1,1-2.1,2-3.1,3.1c-2,2.2-3.8,4.5-5.3,6.9l-7.8-4.9c1.8-2.9,3.9-5.6,6.3-8.2 C322.2,304.9,323.4,303.7,324.7,302.6z" style="fill: rgb(209, 211, 212);"/>
      <path class="st6" d="M320.3,369.2l-8.2,4.2c-2.4-4.6-4.2-9.5-5.3-14.5l9-2C316.8,361.1,318.3,365.3,320.3,369.2z" style="fill: rgb(209, 211, 212);"/>
      <path class="st6" d="M315.1,352.6l-9.1,1.2c-0.7-5.1-0.7-10.3,0-15.4l9.1,1.2C314.5,343.9,314.5,348.3,315.1,352.6z" style="fill: rgb(209, 211, 212);"/>
      <path class="st6" d="M306.9,333.3c1.1-5,2.9-9.9,5.3-14.5l8.2,4.2c-2,3.9-3.5,8-4.5,12.2L306.9,333.3z" style="fill: rgb(209, 211, 212);"/>
    </g>
    <g/>
  </g>
</svg>